<svg xmlns="http://www.w3.org/2000/svg" xmlns:xlink="http://www.w3.org/1999/xlink" xmlns:inkscape="http://www.inkscape.org/namespaces/inkscape" version="1.1" width="169.946" height="128.086" viewBox="0 0 169.946 128.086">
<defs>
<linearGradient id="bcGrad" gradientUnits="userSpaceOnUse" x1="50.8443" y1="36.7387" x2="119.1090" y2="36.8839"><stop offset="0" stop-color="#00ffff"/><stop offset="1" stop-color="#0000ff"/></linearGradient>
<clipPath id="clip_1">
<path transform="matrix(1,0,0,-1,0,128.086)" d="M77.643 120.829C77.643 120.32 77.694 119.824 77.796 119.344 78.148 117.648 77.663 116.026 76.439 114.8L76.189 114.55C74.963 113.324 73.343 112.84 71.645 113.194 71.167 113.294 70.668 113.347 70.16 113.347 66.151 113.347 62.905 110.098 62.905 106.09 62.905 102.083 66.151 98.834 70.16 98.834 74.166 98.834 77.417 102.083 77.417 106.09 77.417 106.598 77.363 107.096 77.263 107.574 76.912 109.272 77.397 110.894 78.621 112.119L78.871 112.369C80.097 113.594 81.717 114.078 83.414 113.724 83.894 113.625 84.389 113.573 84.9 113.573 85.409 113.573 85.905 113.625 86.384 113.724 88.08 114.078 89.702 113.594 90.928 112.369L91.251 112.044C92.479 110.819 92.963 109.197 92.608 107.5 92.509 107.021 92.455 106.523 92.455 106.015 92.455 105.504 92.509 105.008 92.608 104.529 92.963 102.833 92.479 101.211 91.251 99.986L91.002 99.736C89.779 98.51 88.155 98.026 86.458 98.379 85.982 98.478 85.483 98.532 84.973 98.532 80.967 98.532 77.717 95.282 77.717 91.274 77.717 87.269 80.967 84.019 84.973 84.019 85.483 84.019 85.979 84.071 86.458 84.17 88.155 84.523 89.779 84.038 91.002 82.814L91.327 82.489C92.551 81.265 93.037 79.641 92.686 77.945 92.583 77.467 92.532 76.97 92.532 76.461 92.532 75.951 92.583 75.455 92.686 74.975 93.037 73.28 92.551 71.657 91.327 70.431L91.078 70.182C89.852 68.959 88.232 68.474 86.534 68.827 86.055 68.926 85.559 68.978 85.049 68.978 84.539 68.978 84.044 68.926 83.561 68.827 81.868 68.474 80.244 68.959 79.021 70.184L78.697 70.507C77.47 71.733 76.986 73.355 77.341 75.05 77.44 75.531 77.49 76.027 77.49 76.536 77.49 80.544 74.244 83.792 70.234 83.792 66.228 83.792 62.978 80.544 62.978 76.536 62.978 72.528 66.228 69.28 70.234 69.28 70.745 69.28 71.24 69.332 71.719 69.432 73.416 69.784 75.039 69.3 76.263 68.075L76.586 67.75C77.813 66.525 78.297 64.904 77.944 63.207 77.845 62.726 77.793 62.23 77.793 61.721 77.793 57.713 81.04 54.464 85.049 54.464 89.056 54.464 92.305 57.713 92.305 61.721 92.305 62.23 92.252 62.726 92.153 63.206 91.802 64.903 92.286 66.525 93.509 67.75L93.762 67.999C94.986 69.225 96.606 69.71 98.303 69.355 98.782 69.256 99.281 69.204 99.788 69.204 103.797 69.204 107.044 72.454 107.044 76.461 107.044 80.469 103.797 83.717 99.788 83.717 99.281 83.717 98.782 83.665 98.303 83.565 96.606 83.212 94.986 83.697 93.758 84.922L93.436 85.247C92.21 86.472 91.724 88.095 92.079 89.79 92.178 90.271 92.232 90.766 92.232 91.274 92.232 91.783 92.178 92.281 92.079 92.761 91.724 94.457 92.21 96.079 93.436 97.303L93.686 97.553C94.911 98.779 96.533 99.263 98.227 98.91 98.708 98.811 99.204 98.759 99.714 98.759 103.721 98.759 106.97 102.007 106.97 106.015 106.97 110.022 103.721 113.272 99.714 113.272 99.204 113.272 98.708 113.218 98.227 113.119 96.533 112.766 94.91 113.251 93.686 114.475L93.359 114.8C92.136 116.026 91.652 117.648 92.005 119.344 92.104 119.824 92.155 120.32 92.155 120.829 92.155 124.837 88.908 128.085 84.9 128.085 80.89 128.085 77.643 124.837 77.643 120.829M50.849 91.35C50.849 88.826 52.895 86.78 55.422 86.78 57.944 86.78 59.989 88.826 59.989 91.35 59.989 93.874 57.944 95.92 55.422 95.92 52.895 95.92 50.849 93.874 50.849 91.35M109.957 91.202C109.957 88.676 112.002 86.631 114.526 86.631 117.051 86.631 119.097 88.676 119.097 91.202 119.097 93.726 117.051 95.771 114.526 95.771 112.002 95.771 109.957 93.726 109.957 91.202"/>
</clipPath>
<clipPath id="clip_2">
<path transform="matrix(1,0,0,-1,0,128.086)" d="M0 128.086H169.946V0H0Z"/>
</clipPath>
</defs>
<g inkscape:groupmode="layer" inkscape:label="&#xB808;&#xC774;&#xC5B4; 1">
<g clip-path="url(#clip_1)">
<rect x="0" y="0" width="169.9460" height="128.0860" fill="url(#bcGrad)"/>
</g>
<g clip-path="url(#clip_2)">
<path transform="matrix(1,0,0,-1,0,128.086)" d="M13.753 28.666H5.1900007V24.774H13.753ZM13.338 36.269H5.1900007V32.947004H13.338ZM0 20.103V40.94H14.739C16.971 40.94 18.528 39.383 18.528 37.152V34.116C18.528 32.559 17.775 31.469 16.556 30.924 17.957 30.457 18.891 29.289 18.943 27.654V23.891C18.943 21.66 17.386 20.103 15.155 20.103Z" fill="#17232e"/>
<path transform="matrix(1,0,0,-1,0,128.086)" d="M34.617 36.269H26.054V24.774003H34.617ZM24.653 20.103C22.421 20.103 20.864 21.66 20.864 23.891V37.152C20.864 39.383 22.421 40.94 24.653 40.94H36.018C38.25 40.94 39.807 39.383 39.807 37.152V23.891C39.807 21.66 38.25 20.103 36.018 20.103Z" fill="#17232e"/>
<path transform="matrix(1,0,0,-1,0,128.086)" d="M55.947 36.269H47.384V24.774003H55.947ZM45.983 20.103C43.752 20.103 42.195 21.66 42.195 23.891V37.152C42.195 39.383 43.752 40.94 45.983 40.94H57.349C59.581 40.94 61.138 39.383 61.138 37.152V23.891C61.138 21.66 59.581 20.103 57.349 20.103Z" fill="#17232e"/>
<path transform="matrix(1,0,0,-1,69.39,107.9832)" d="M0 0V16.141H-6.928V20.812H12.144V16.141H5.216V0Z" fill="#17232e"/>
<path transform="matrix(1,0,0,-1,86.6463,107.9832)" d="M0 0C-2.232 0-3.788 1.557-3.788 3.789V17.049C-3.788 19.28-2.232 20.837 0 20.837H11.34C13.571 20.837 15.129 19.28 15.129 17.049V13.234H9.939V16.166H1.402V4.671H9.939V8.044H15.129V3.789C15.129 1.557 13.571 0 11.34 0Z" fill="#17232e"/>
<path transform="matrix(1,0,0,-1,114.4387,95.2679)" d="M0 0C-.363 1.297-.83 2.829-1.09 4.126-1.402 2.829-1.894 1.297-2.309 0L-3.581-3.737H1.116ZM3.841-12.715 2.414-8.044H-5.034L-6.591-12.715H-12.274L-5.346 8.122H3.088L9.523-12.715Z" fill="#17232e"/>
<path transform="matrix(1,0,0,-1,143.4768,107.9832)" d="M0 0V10.665C0 11.729 .052 12.819 .077 13.883L-4.282 0H-9.083L-13.416 13.883C-13.39 12.819-13.338 11.729-13.338 10.665V0H-18.528V20.837H-11.47L-7.863 9.523C-7.552 8.512-7.11 7.136-6.669 5.449-6.228 7.136-5.787 8.512-5.476 9.523L-1.869 20.837H5.19V0Z" fill="#17232e"/>
<path transform="matrix(1,0,0,-1,0,128.086)" d="M164.756 36.269H156.34799V31.365002H164.756ZM156.348 26.694V20.103H151.158V40.94H166.157C168.389 40.94 169.946 39.383 169.946 37.152V30.483C169.946 28.251 168.389 26.694 166.157 26.694Z" fill="#17232e"/>
<path transform="matrix(1,0,0,-1,120.6922,126.244998)" d="M0 0C-1.123 0-1.906 .784-1.906 1.907V8.579C-1.906 9.702-1.123 10.485 0 10.485H5.707C6.829 10.485 7.613 9.702 7.613 8.579V6.659H5.001V8.135H.705V2.35H5.001V4.048H7.613V1.907C7.613 .784 6.829 0 5.707 0Z" fill="#17232e"/>
<path transform="matrix(1,0,0,-1,0,128.086)" d="M134.896 7.678H132.14099V4.139H134.896ZM131.462 1.841C130.365 1.841 129.582 2.598 129.582 3.695V8.148C129.582 9.245 130.365 9.976 131.462 9.976H135.575C136.672 9.976 137.456 9.245 137.456 8.148V3.695C137.456 2.598 136.672 1.841 135.575 1.841Z" fill="#17232e"/>
<path transform="matrix(1,0,0,-1,0,128.086)" d="M138.759 4.165H141.37V1.5669999H138.759Z" fill="#17232e"/>
<path transform="matrix(1,0,0,-1,142.2438,128.086)" d="M0 0 .522 4.165H3.12L1.958 0Z" fill="#17232e"/>
<path transform="matrix(1,0,0,-1,150.4938,126.244998)" d="M0 0C-1.123 0-1.906 .784-1.906 1.907V10.485H.705V2.35H5.354V0Z" fill="#17232e"/>
<path transform="matrix(1,0,0,-1,158.522,126.244998)" d="M0 0C-1.096 0-1.88 .731-1.88 1.828V5.837H-3.329V8.135H-1.88V10.485H.679V8.135H2.598V5.837H.679V2.141H2.598V0Z" fill="#17232e"/>
<path transform="matrix(1,0,0,-1,0,128.086)" d="M167.386 7.678H164.631V4.139H167.386ZM163.952 1.841C162.855 1.841 162.072 2.598 162.072 3.695V8.148C162.072 9.245 162.855 9.976 163.952 9.976H167.386V12.783H169.946V1.841Z" fill="#17232e"/>
<path transform="matrix(1,0,0,-1,4.2749,119.0415)" d="M0 0-1.185-3.198H1.185ZM2.086-5.625 1.461-3.945H-1.461L-2.086-5.625H-2.996L-.528 .771H.527L2.995-5.625Z" fill="#17232e"/>
<path transform="matrix(1,0,0,-1,0,128.086)" d="M8.265 4.101H9.304001V3.0699998H8.265Z" fill="#17232e"/>
<path transform="matrix(1,0,0,-1,0,128.086)" d="M10.766 9.816H11.611V3.4190002H10.766Z" fill="#17232e"/>
<path transform="matrix(1,0,0,-1,30.1451,119.374)" d="M0 0C0 .219-.138 .357-.357 .357H-3.507V-4.546H-.357C-.138-4.546 0-4.408 0-4.189ZM-4.352-5.293V1.104H-.309C.373 1.104 .844 .633 .844-.049V-4.14C.844-4.822 .373-5.293-.309-5.293Z" fill="#17232e"/>
<path transform="matrix(1,0,0,-1,35.4825,122.7915)" d="M0 0H-2.119C-2.2 0-2.249-.049-2.249-.13V-1.015C-2.249-1.096-2.2-1.145-2.119-1.145H-.13C-.049-1.145 0-1.096 0-1.015ZM-2.33-1.875C-2.768-1.875-3.077-1.567-3.077-1.128V.008C-3.077 .446-2.809 .714-2.371 .714H0V1.526C0 1.607-.049 1.656-.13 1.656H-2.038C-2.119 1.656-2.167 1.607-2.167 1.526V1.063H-2.996V1.64C-2.996 2.078-2.687 2.387-2.249 2.387H.081C.52 2.387 .828 2.078 .828 1.64V-1.128C.828-1.567 .52-1.875 .081-1.875Z" fill="#17232e"/>
<path transform="matrix(1,0,0,-1,39.2032,124.667)" d="M0 0C-.438 0-.747 .309-.747 .747V3.531H-1.721V4.262H-.747V6.283H.082V4.262H1.234V3.531H.082V.861C.082 .779 .13 .731 .211 .731H1.104V0Z" fill="#17232e"/>
<path transform="matrix(1,0,0,-1,44.604,122.7915)" d="M0 0H-2.119C-2.2 0-2.249-.049-2.249-.13V-1.015C-2.249-1.096-2.2-1.145-2.119-1.145H-.13C-.049-1.145 0-1.096 0-1.015ZM-2.33-1.875C-2.769-1.875-3.077-1.567-3.077-1.128V.008C-3.077 .446-2.809 .714-2.371 .714H0V1.526C0 1.607-.049 1.656-.13 1.656H-2.038C-2.119 1.656-2.167 1.607-2.167 1.526V1.063H-2.996V1.64C-2.996 2.078-2.687 2.387-2.249 2.387H.081C.52 2.387 .828 2.078 .828 1.64V-1.128C.828-1.567 .52-1.875 .081-1.875Z" fill="#17232e"/>
<path transform="matrix(1,0,0,-1,63.5298,124.667)" d="M0 0V2.963H-3.183V0H-4.026V6.397H-3.183V3.726H0V6.397H.844V0Z" fill="#17232e"/>
<path transform="matrix(1,0,0,-1,69.0044,121.265598)" d="M0 0C0 .082-.049 .13-.13 .13H-2.159C-2.24 .13-2.289 .082-2.289 0V-1.006H-.13C-.049-1.006 0-.958 0-.876ZM-2.37-3.401C-2.809-3.401-3.117-3.093-3.117-2.654V.114C-3.117 .552-2.809 .861-2.37 .861H.081C.52 .861 .828 .552 .828 .114V-1.015C.828-1.453 .56-1.721 .122-1.721H-2.289V-2.541C-2.289-2.622-2.24-2.67-2.159-2.67H-.211C-.13-2.67-.081-2.622-.081-2.541V-2.07H.747V-2.654C.747-3.093 .438-3.401 0-3.401Z" fill="#17232e"/>
<path transform="matrix(1,0,0,-1,74.2769,122.7915)" d="M0 0H-2.119C-2.2 0-2.249-.049-2.249-.13V-1.015C-2.249-1.096-2.2-1.145-2.119-1.145H-.13C-.049-1.145 0-1.096 0-1.015ZM-2.33-1.875C-2.769-1.875-3.077-1.567-3.077-1.128V.008C-3.077 .446-2.809 .714-2.371 .714H0V1.526C0 1.607-.049 1.656-.13 1.656H-2.038C-2.119 1.656-2.167 1.607-2.167 1.526V1.063H-2.996V1.64C-2.996 2.078-2.687 2.387-2.249 2.387H.081C.52 2.387 .828 2.078 .828 1.64V-1.128C.828-1.567 .52-1.875 .081-1.875Z" fill="#17232e"/>
<path transform="matrix(1,0,0,-1,0,128.086)" d="M76.585 10.1H77.413V3.4190002H76.585Z" fill="#17232e"/>
<path transform="matrix(1,0,0,-1,80.418,124.667)" d="M0 0C-.438 0-.747 .309-.747 .747V3.531H-1.721V4.262H-.747V6.283H.082V4.262H1.234V3.531H.082V.861C.082 .779 .13 .731 .211 .731H1.104V0Z" fill="#17232e"/>
<path transform="matrix(1,0,0,-1,86.1031,124.667)" d="M0 0V3.401C0 3.483-.049 3.531-.13 3.531H-2.33V0H-3.158V6.681H-2.33V4.262H.081C.52 4.262 .828 3.954 .828 3.515V0Z" fill="#17232e"/>
<path transform="matrix(1,0,0,-1,89.126,124.667)" d="M0 0C-.438 0-.747 .309-.747 .747V3.515C-.747 3.954-.438 4.262 0 4.262H2.411C2.849 4.262 3.158 3.954 3.158 3.515V2.752H2.33V3.401C2.33 3.483 2.281 3.531 2.2 3.531H.211C.13 3.531 .081 3.483 .081 3.401V.861C.081 .779 .13 .731 .211 .731H2.2C2.281 .731 2.33 .779 2.33 .861V1.729H3.158V.747C3.158 .309 2.849 0 2.411 0Z" fill="#17232e"/>
<path transform="matrix(1,0,0,-1,96.7603,122.7915)" d="M0 0H-2.119C-2.2 0-2.249-.049-2.249-.13V-1.015C-2.249-1.096-2.2-1.145-2.119-1.145H-.13C-.049-1.145 0-1.096 0-1.015ZM-2.33-1.875C-2.769-1.875-3.077-1.567-3.077-1.128V.008C-3.077 .446-2.809 .714-2.371 .714H0V1.526C0 1.607-.049 1.656-.13 1.656H-2.038C-2.119 1.656-2.167 1.607-2.167 1.526V1.063H-2.996V1.64C-2.996 2.078-2.687 2.387-2.249 2.387H.081C.52 2.387 .828 2.078 .828 1.64V-1.128C.828-1.567 .52-1.875 .081-1.875Z" fill="#17232e"/>
<path transform="matrix(1,0,0,-1,99.0034,124.667)" d="M0 0V3.515C0 3.954 .309 4.262 .747 4.262H2.565V3.531H.958C.877 3.531 .828 3.483 .828 3.401V0Z" fill="#17232e"/>
<path transform="matrix(1,0,0,-1,105.8575,121.265598)" d="M0 0C0 .082-.048 .13-.13 .13H-2.159C-2.24 .13-2.289 .082-2.289 0V-1.006H-.13C-.048-1.006 0-.958 0-.876ZM-2.37-3.401C-2.809-3.401-3.117-3.093-3.117-2.654V.114C-3.117 .552-2.809 .861-2.37 .861H.082C.52 .861 .828 .552 .828 .114V-1.015C.828-1.453 .56-1.721 .122-1.721H-2.289V-2.541C-2.289-2.622-2.24-2.67-2.159-2.67H-.211C-.13-2.67-.081-2.622-.081-2.541V-2.07H.747V-2.654C.747-3.093 .438-3.401 0-3.401Z" fill="#17232e"/>
<path transform="matrix(1,0,0,-1,0,128.086)" d="M19.193 2.581H18.693V10.978001H19.193Z" fill="#717071"/>
<path transform="matrix(1,0,0,-1,0,128.086)" d="M52.51 2.581H52.01V10.978001H52.51Z" fill="#717071"/>
</g>
</g>
</svg>
