<svg xmlns="http://www.w3.org/2000/svg" xmlns:xlink="http://www.w3.org/1999/xlink" xmlns:inkscape="http://www.inkscape.org/namespaces/inkscape" version="1.1" width="195.62" height="52.611" viewBox="0 0 195.62 52.611">
<defs>
<linearGradient id="bcGrad" gradientUnits="userSpaceOnUse" x1="-0.0032" y1="26.2536" x2="48.7795" y2="26.3574"><stop offset="0" stop-color="#00ffff"/><stop offset="1" stop-color="#0000ff"/></linearGradient>
<clipPath id="clip_1">
<path transform="matrix(1,0,0,-1,0,52.611)" d="M19.148 47.426C19.148 47.061 19.184 46.707 19.257 46.363 19.508 45.152 19.162 43.993 18.287 43.117L18.109 42.938C17.232 42.062 16.074 41.717 14.861 41.97 14.519 42.04 14.162 42.079 13.801 42.079 10.935 42.079 8.616 39.757 8.616 36.893 8.616 34.029 10.935 31.708 13.801 31.708 16.663 31.708 18.986 34.029 18.986 36.893 18.986 37.256 18.947 37.611 18.877 37.953 18.626 39.166 18.972 40.325 19.847 41.201L20.025 41.379C20.901 42.255 22.059 42.602 23.271 42.348 23.614 42.277 23.968 42.24 24.333 42.24 24.697 42.24 25.051 42.277 25.393 42.348 26.607 42.602 27.765 42.255 28.642 41.379L28.872 41.147C29.749 40.271 30.095 39.113 29.842 37.9 29.771 37.558 29.732 37.202 29.732 36.839 29.732 36.474 29.771 36.12 29.842 35.777 30.095 34.565 29.749 33.406 28.872 32.531L28.694 32.352C27.82 31.477 26.659 31.13 25.447 31.382 25.106 31.453 24.75 31.492 24.385 31.492 21.523 31.492 19.201 29.17 19.201 26.305 19.201 23.442 21.523 21.12 24.385 21.12 24.75 21.12 25.104 21.157 25.447 21.228 26.659 21.48 27.82 21.135 28.694 20.259L28.927 20.027C29.802 19.152 30.147 17.992 29.897 16.781 29.823 16.439 29.787 16.083 29.787 15.719 29.787 15.355 29.823 15.001 29.897 14.657 30.147 13.446 29.802 12.287 28.927 11.411L28.749 11.233C27.872 10.358 26.714 10.012 25.501 10.264 25.159 10.335 24.805 10.372 24.44 10.372 24.076 10.372 23.721 10.335 23.378 10.264 22.166 10.012 21.006 10.358 20.132 11.234L19.901 11.465C19.024 12.341 18.678 13.499 18.932 14.711 19.002 15.054 19.039 15.41 19.039 15.773 19.039 18.637 16.717 20.958 13.853 20.958 10.99 20.958 8.668 18.637 8.668 15.773 8.668 12.91 10.99 10.588 13.853 10.588 14.217 10.588 14.572 10.625 14.914 10.697 16.127 10.949 17.287 10.602 18.162 9.726L18.392 9.495C19.269 8.619 19.615 7.461 19.363 6.248 19.292 5.905 19.255 5.55 19.255 5.186 19.255 2.322 21.575 0 24.44 0 27.303 0 29.625 2.322 29.625 5.186 29.625 5.55 29.587 5.905 29.516 6.247 29.265 7.46 29.612 8.619 30.486 9.495L30.666 9.673C31.54 10.549 32.699 10.895 33.911 10.642 34.254 10.57 34.61 10.534 34.973 10.534 37.837 10.534 40.158 12.856 40.158 15.719 40.158 18.583 37.837 20.904 34.973 20.904 34.61 20.904 34.254 20.867 33.911 20.796 32.699 20.544 31.54 20.891 30.664 21.766L30.434 21.998C29.557 22.874 29.21 24.033 29.463 25.245 29.534 25.588 29.572 25.943 29.572 26.305 29.572 26.669 29.534 27.024 29.463 27.367 29.21 28.579 29.557 29.739 30.434 30.614L30.612 30.792C31.488 31.667 32.647 32.014 33.857 31.762 34.201 31.691 34.555 31.654 34.92 31.654 37.783 31.654 40.105 33.975 40.105 36.839 40.105 39.703 37.783 42.025 34.92 42.025 34.555 42.025 34.201 41.987 33.857 41.916 32.647 41.664 31.486 42.01 30.612 42.884L30.379 43.117C29.504 43.993 29.158 45.152 29.41 46.363 29.481 46.707 29.518 47.061 29.518 47.426 29.518 50.29 27.198 52.611 24.333 52.611 21.468 52.611 19.148 50.29 19.148 47.426M0 26.359C0 24.556 1.462 23.093 3.268 23.093 5.07 23.093 6.531 24.556 6.531 26.359 6.531 28.163 5.07 29.625 3.268 29.625 1.462 29.625 0 28.163 0 26.359M42.239 26.253C42.239 24.449 43.7 22.987 45.505 22.987 47.309 22.987 48.771 24.449 48.771 26.253 48.771 28.057 47.309 29.519 45.505 29.519 43.7 29.519 42.239 28.057 42.239 26.253"/>
</clipPath>
<clipPath id="clip_2">
<path transform="matrix(1,0,0,-1,0,52.611)" d="M0 52.611H195.62V0H0Z"/>
</clipPath>
</defs>
<g inkscape:groupmode="layer" inkscape:label="&#xB808;&#xC774;&#xC5B4; 1">
<g clip-path="url(#clip_1)">
<rect x="0" y="0" width="195.6200" height="52.6110" fill="url(#bcGrad)"/>
</g>
<path transform="matrix(1,0,0,-1,65.3382,40.2118)" d="M0 0-1.16-3.132H1.161ZM2.043-5.509 1.432-3.863H-1.431L-2.043-5.509H-2.934L-.517 .755H.517L2.934-5.509Z" fill="#17232e"/>
<path transform="matrix(1,0,0,-1,0,52.611)" d="M70.35 7.558H71.368V6.5480005H70.35Z" fill="#17232e"/>
<path transform="matrix(1,0,0,-1,0,52.611)" d="M73.91 6.89H74.736V13.153999H73.91Z" fill="#17232e"/>
<g clip-path="url(#clip_2)">
<path transform="matrix(1,0,0,-1,99.5423,40.5374)" d="M0 0C0 .214-.135 .35-.35 .35H-3.435V-4.452H-.35C-.135-4.452 0-4.317 0-4.102ZM-4.261-5.184V1.081H-.302C.365 1.081 .827 .62 .827-.048V-4.055C.827-4.722 .365-5.184-.302-5.184Z" fill="#17232e"/>
<path transform="matrix(1,0,0,-1,105.8734,43.884599)" d="M0 0H-2.075C-2.154 0-2.202-.047-2.202-.127V-.994C-2.202-1.073-2.154-1.121-2.075-1.121H-.127C-.048-1.121 0-1.073 0-.994ZM-2.281-1.836C-2.711-1.836-3.013-1.534-3.013-1.105V.008C-3.013 .437-2.751 .7-2.321 .7H0V1.495C0 1.574-.048 1.622-.127 1.622H-1.995C-2.075 1.622-2.123 1.574-2.123 1.495V1.042H-2.934V1.606C-2.934 2.035-2.632 2.337-2.202 2.337H.079C.509 2.337 .811 2.035 .811 1.606V-1.105C.811-1.534 .509-1.836 .079-1.836Z" fill="#17232e"/>
<path transform="matrix(1,0,0,-1,110.6234,45.721)" d="M0 0C-.43 0-.731 .302-.731 .731V3.458H-1.686V4.174H-.731V6.153H.079V4.174H1.208V3.458H.079V.843C.079 .763 .127 .716 .207 .716H1.081V0Z" fill="#17232e"/>
<path transform="matrix(1,0,0,-1,117.0199,43.884599)" d="M0 0H-2.075C-2.154 0-2.202-.047-2.202-.127V-.994C-2.202-1.073-2.154-1.121-2.075-1.121H-.127C-.048-1.121 0-1.073 0-.994ZM-2.281-1.836C-2.711-1.836-3.013-1.534-3.013-1.105V.008C-3.013 .437-2.751 .7-2.321 .7H0V1.495C0 1.574-.048 1.622-.127 1.622H-1.995C-2.075 1.622-2.123 1.574-2.123 1.495V1.042H-2.934V1.606C-2.934 2.035-2.632 2.337-2.202 2.337H.079C.509 2.337 .811 2.035 .811 1.606V-1.105C.811-1.534 .509-1.836 .079-1.836Z" fill="#17232e"/>
<path transform="matrix(1,0,0,-1,142.2054,45.721)" d="M0 0V2.902H-3.116V0H-3.942V6.265H-3.116V3.649H0V6.265H.827V0Z" fill="#17232e"/>
<path transform="matrix(1,0,0,-1,148.6722,42.39)" d="M0 0C0 .08-.048 .127-.127 .127H-2.114C-2.194 .127-2.241 .08-2.241 0V-.986H-.127C-.048-.986 0-.938 0-.858ZM-2.321-3.331C-2.751-3.331-3.053-3.029-3.053-2.6V.111C-3.053 .541-2.751 .843-2.321 .843H.08C.509 .843 .812 .541 .812 .111V-.994C.812-1.423 .549-1.685 .119-1.685H-2.241V-2.488C-2.241-2.568-2.194-2.615-2.114-2.615H-.206C-.127-2.615-.079-2.568-.079-2.488V-2.027H.731V-2.6C.731-3.029 .43-3.331 0-3.331Z" fill="#17232e"/>
<path transform="matrix(1,0,0,-1,154.9408,43.884599)" d="M0 0H-2.075C-2.154 0-2.202-.047-2.202-.127V-.994C-2.202-1.073-2.154-1.121-2.075-1.121H-.127C-.048-1.121 0-1.073 0-.994ZM-2.281-1.836C-2.711-1.836-3.013-1.534-3.013-1.105V.008C-3.013 .437-2.751 .7-2.321 .7H0V1.495C0 1.574-.048 1.622-.127 1.622H-1.995C-2.075 1.622-2.123 1.574-2.123 1.495V1.042H-2.934V1.606C-2.934 2.035-2.632 2.337-2.202 2.337H.079C.509 2.337 .811 2.035 .811 1.606V-1.105C.811-1.534 .509-1.836 .079-1.836Z" fill="#17232e"/>
<path transform="matrix(1,0,0,-1,0,52.611)" d="M158.308 13.433H159.119V6.8899996H158.308Z" fill="#17232e"/>
<path transform="matrix(1,0,0,-1,163.1703,45.721)" d="M0 0C-.43 0-.731 .302-.731 .731V3.458H-1.686V4.174H-.731V6.153H.079V4.174H1.208V3.458H.079V.843C.079 .763 .127 .716 .207 .716H1.081V0Z" fill="#17232e"/>
<path transform="matrix(1,0,0,-1,169.8451,45.721)" d="M0 0V3.331C0 3.411-.048 3.458-.128 3.458H-2.282V0H-3.093V6.543H-2.282V4.174H.079C.509 4.174 .811 3.872 .811 3.442V0Z" fill="#17232e"/>
<path transform="matrix(1,0,0,-1,173.9115,45.721)" d="M0 0C-.43 0-.731 .302-.731 .731V3.442C-.731 3.872-.43 4.174 0 4.174H2.361C2.79 4.174 3.093 3.872 3.093 3.442V2.695H2.281V3.331C2.281 3.411 2.234 3.458 2.154 3.458H.207C.127 3.458 .08 3.411 .08 3.331V.843C.08 .763 .127 .716 .207 .716H2.154C2.234 .716 2.281 .763 2.281 .843V1.693H3.093V.731C3.093 .302 2.79 0 2.361 0Z" fill="#17232e"/>
<path transform="matrix(1,0,0,-1,182.4925,43.884599)" d="M0 0H-2.075C-2.154 0-2.202-.047-2.202-.127V-.994C-2.202-1.073-2.154-1.121-2.075-1.121H-.127C-.048-1.121 0-1.073 0-.994ZM-2.281-1.836C-2.711-1.836-3.013-1.534-3.013-1.105V.008C-3.013 .437-2.751 .7-2.321 .7H0V1.495C0 1.574-.048 1.622-.127 1.622H-1.995C-2.075 1.622-2.123 1.574-2.123 1.495V1.042H-2.934V1.606C-2.934 2.035-2.632 2.337-2.202 2.337H.079C.509 2.337 .811 2.035 .811 1.606V-1.105C.811-1.534 .509-1.836 .079-1.836Z" fill="#17232e"/>
<path transform="matrix(1,0,0,-1,185.7953,45.721)" d="M0 0V3.442C0 3.872 .303 4.174 .731 4.174H2.513V3.458H.938C.859 3.458 .812 3.411 .812 3.331V0Z" fill="#17232e"/>
<path transform="matrix(1,0,0,-1,193.6156,42.39)" d="M0 0C0 .08-.048 .127-.127 .127H-2.114C-2.194 .127-2.241 .08-2.241 0V-.986H-.127C-.048-.986 0-.938 0-.858ZM-2.321-3.331C-2.751-3.331-3.053-3.029-3.053-2.6V.111C-3.053 .541-2.751 .843-2.321 .843H.08C.509 .843 .812 .541 .812 .111V-.994C.812-1.423 .549-1.685 .119-1.685H-2.241V-2.488C-2.241-2.568-2.194-2.615-2.114-2.615H-.206C-.127-2.615-.079-2.568-.079-2.488V-2.027H.731V-2.6C.731-3.029 .43-3.331 0-3.331Z" fill="#17232e"/>
<path transform="matrix(1,0,0,-1,60.6458,31.9041)" d="M0 0C-2.182 3.705-2.969 7.663-2.969 11.368-2.969 15.047-2.182 18.98 0 22.66H3.68C1.497 18.98 .559 14.793 .559 11.368 .559 7.917 1.497 3.705 3.68 0Z" fill="#17232e"/>
<path transform="matrix(1,0,0,-1,84.6537,20.8661)" d="M0 0C-2.767 1.396-5.532 2.766-8.247 4.238-10.988 2.817-13.754 1.446-16.494 0L-18.626 2.36C-16.164 3.654-13.602 4.974-11.165 6.293-10.303 6.775-10.1 7.283-10.049 8.222H-17.357V11.317H.862V8.222H-6.445C-6.42 7.308-6.191 6.775-5.329 6.293-2.943 4.948-.355 3.629 2.131 2.36ZM-6.471-4.136V-10.708H-10.023V-4.136H-19.285V-1.041H2.791V-4.136Z" fill="#17232e"/>
<path transform="matrix(1,0,0,-1,88.4906,31.9041)" d="M0 0C2.182 3.705 3.121 7.917 3.121 11.368 3.121 14.793 2.182 18.98 0 22.66H3.679C5.861 18.98 6.648 15.047 6.648 11.368 6.648 7.663 5.861 3.705 3.679 0Z" fill="#17232e"/>
<path transform="matrix(1,0,0,-1,0,52.611)" d="M117.142 37.099H107.043V35.45H117.142ZM102.07 31.187V43.189H107.043V41.362H117.142V43.189H122.116V31.187ZM114.833 25.401V20.884H109.352V25.401H100.902V29.664H123.284V25.401Z" fill="#17232e"/>
<path transform="matrix(1,0,0,-1,126.4359,24.5706)" d="M0 0V15.022H19.539V11.013H4.974V9.541H19.285V5.659H4.974V4.136H19.792V0ZM-1.422-1.929H20.96V-6.192H-1.422Z" fill="#17232e"/>
<path transform="matrix(1,0,0,-1,166.5345,21.3734)" d="M0 0V4.212H-1.345V.051H-5.964V12.129H-1.345V8.475H0V12.206H4.669V0ZM-.305-4.872H-10.024V-6.09H-.305ZM-.305-10.201V-8.399L-1.979-10.201H-14.997V-.736H4.669V-10.201ZM-18.042 2.563C-16.596 3.197-15.175 3.781-13.906 4.44H-17.408V7.485H-11.647V8.45H-17.129V11.85H-7.156V6.42C-7.156 4.974-7.715 3.857-8.806 3.121-11.063 1.599-13.982 .431-16.545-.609Z" fill="#17232e"/>
<path transform="matrix(1,0,0,-1,0,52.611)" d="M186.662 38.672H182.196V33.293H186.662ZM174.356 29.03V33.293H177.223V38.672H174.483V42.935H194.376V38.672H191.636V33.293H194.503V29.03ZM173.239 26.112H195.621V21.848999H173.239Z" fill="#17232e"/>
<path transform="matrix(1,0,0,-1,0,52.611)" d="M85.539 6.071H85.039V14.284H85.539Z" fill="#717071"/>
<path transform="matrix(1,0,0,-1,0,52.611)" d="M127.745 6.071H127.245V14.284H127.745Z" fill="#717071"/>
</g>
</g>
</svg>
