<svg xmlns="http://www.w3.org/2000/svg" xmlns:xlink="http://www.w3.org/1999/xlink" xmlns:inkscape="http://www.inkscape.org/namespaces/inkscape" version="1.1" width="229.008" height="53.7895" viewBox="0 0 229.008 53.7895">
<defs>
<linearGradient id="bcGrad" gradientUnits="userSpaceOnUse" x1="-0.0033" y1="26.8417" x2="49.8722" y2="26.9478"><stop offset="0" stop-color="#00ffff"/><stop offset="1" stop-color="#0000ff"/></linearGradient>
<clipPath id="clip_1">
<path transform="matrix(1,0,0,-1,0,53.7895)" d="M19.576 48.488C19.576 48.116 19.614 47.753 19.688 47.402 19.945 46.164 19.591 44.978 18.697 44.083L18.515 43.9C17.618 43.005 16.434 42.651 15.194 42.909 14.845 42.982 14.48 43.021 14.109 43.021 11.181 43.021 8.808 40.647 8.808 37.719 8.808 34.791 11.181 32.418 14.109 32.418 17.036 32.418 19.411 34.791 19.411 37.719 19.411 38.091 19.372 38.453 19.299 38.803 19.042 40.044 19.397 41.229 20.291 42.124L20.473 42.306C21.37 43.202 22.553 43.555 23.793 43.296 24.143 43.224 24.505 43.186 24.878 43.186 25.25 43.186 25.613 43.224 25.962 43.296 27.202 43.555 28.387 43.202 29.282 42.306L29.518 42.069C30.415 41.174 30.769 39.989 30.511 38.749 30.438 38.399 30.398 38.036 30.398 37.664 30.398 37.292 30.438 36.929 30.511 36.579 30.769 35.339 30.415 34.154 29.518 33.26L29.336 33.077C28.443 32.181 27.257 31.828 26.016 32.085 25.669 32.158 25.304 32.197 24.932 32.197 22.005 32.197 19.631 29.823 19.631 26.895 19.631 23.968 22.005 21.594 24.932 21.594 25.304 21.594 25.666 21.632 26.016 21.704 27.257 21.962 28.443 21.608 29.336 20.713L29.575 20.476C30.469 19.581 30.823 18.395 30.567 17.157 30.492 16.807 30.454 16.443 30.454 16.071 30.454 15.699 30.492 15.337 30.567 14.986 30.823 13.747 30.469 12.561 29.575 11.667L29.392 11.484C28.497 10.59 27.312 10.237 26.072 10.494 25.722 10.566 25.36 10.605 24.988 10.605 24.615 10.605 24.253 10.566 23.9 10.494 22.663 10.237 21.477 10.59 20.583 11.486L20.346 11.722C19.45 12.617 19.096 13.801 19.355 15.041 19.427 15.392 19.465 15.755 19.465 16.126 19.465 19.055 17.093 21.428 14.163 21.428 11.236 21.428 8.862 19.055 8.862 16.126 8.862 13.199 11.236 10.825 14.163 10.825 14.536 10.825 14.899 10.864 15.248 10.936 16.488 11.193 17.674 10.84 18.569 9.944L18.805 9.707C19.701 8.812 20.055 7.628 19.796 6.388 19.723 6.037 19.686 5.674 19.686 5.302 19.686 2.374 22.058 0 24.988 0 27.914 0 30.289 2.374 30.289 5.302 30.289 5.674 30.25 6.037 30.177 6.387 29.921 7.627 30.275 8.812 31.169 9.707L31.353 9.889C32.248 10.785 33.431 11.139 34.671 10.88 35.022 10.807 35.385 10.769 35.756 10.769 38.685 10.769 41.057 13.144 41.057 16.071 41.057 19 38.685 21.373 35.756 21.373 35.385 21.373 35.022 21.335 34.671 21.262 33.431 21.004 32.248 21.358 31.351 22.253L31.115 22.491C30.218 23.386 29.865 24.571 30.124 25.81 30.196 26.161 30.236 26.523 30.236 26.895 30.236 27.266 30.196 27.63 30.124 27.981 29.865 29.219 30.218 30.405 31.115 31.3L31.297 31.482C32.193 32.378 33.377 32.731 34.616 32.474 34.967 32.401 35.329 32.363 35.702 32.363 38.629 32.363 41.004 34.736 41.004 37.664 41.004 40.593 38.629 42.967 35.702 42.967 35.329 42.967 34.967 42.927 34.616 42.854 33.377 42.597 32.191 42.951 31.297 43.845L31.059 44.083C30.165 44.978 29.811 46.164 30.069 47.402 30.142 47.753 30.179 48.116 30.179 48.488 30.179 51.416 27.807 53.789 24.878 53.789 21.949 53.789 19.576 51.416 19.576 48.488M0 26.95C0 25.105 1.495 23.611 3.341 23.611 5.183 23.611 6.678 25.105 6.678 26.95 6.678 28.794 5.183 30.289 3.341 30.289 1.495 30.289 0 28.794 0 26.95M43.186 26.841C43.186 24.997 44.68 23.502 46.524 23.502 48.369 23.502 49.864 24.997 49.864 26.841 49.864 28.686 48.369 30.18 46.524 30.18 44.68 30.18 43.186 28.686 43.186 26.841"/>
</clipPath>
<clipPath id="clip_2">
<path transform="matrix(1,0,0,-1,0,53.7895)" d="M0 53.79H229.008V0H0Z"/>
</clipPath>
</defs>
<g inkscape:groupmode="layer" inkscape:label="&#xB808;&#xC774;&#xC5B4; 1">
<g clip-path="url(#clip_1)">
<rect x="0" y="0" width="229.0080" height="53.7895" fill="url(#bcGrad)"/>
</g>
<g clip-path="url(#clip_2)">
<path transform="matrix(1,0,0,-1,0,53.7895)" d="M72.815 32.292H64.252V28.4H72.815ZM72.4 39.895H64.252V36.573H72.4ZM59.062 23.729V44.566H73.801C76.033 44.566 77.59 43.009 77.59 40.778V37.741C77.59 36.184 76.837 35.094 75.618 34.55 77.019 34.082 77.953 32.915 78.005 31.28V27.517C78.005 25.286 76.448 23.729 74.217 23.729Z" fill="#17232e"/>
<path transform="matrix(1,0,0,-1,0,53.7895)" d="M93.679 39.895H85.116V28.400002H93.679ZM83.715 23.729C81.483 23.729 79.926 25.286 79.926 27.517V40.778C79.926 43.009 81.483 44.566 83.715 44.566H95.08C97.312 44.566 98.869 43.009 98.869 40.778V27.517C98.869 25.286 97.312 23.729 95.08 23.729Z" fill="#17232e"/>
<path transform="matrix(1,0,0,-1,0,53.7895)" d="M115.009 39.895H106.446V28.400002H115.009ZM105.045 23.729C102.814 23.729 101.257 25.286 101.257 27.517V40.778C101.257 43.009 102.814 44.566 105.045 44.566H116.411C118.643 44.566 120.2 43.009 120.2 40.778V27.517C120.2 25.286 118.643 23.729 116.411 23.729Z" fill="#17232e"/>
<path transform="matrix(1,0,0,-1,128.452,30.060702)" d="M0 0V16.141H-6.928V20.812H12.144V16.141H5.216V0Z" fill="#17232e"/>
<path transform="matrix(1,0,0,-1,145.7083,30.060702)" d="M0 0C-2.232 0-3.788 1.557-3.788 3.789V17.049C-3.788 19.28-2.232 20.837 0 20.837H11.34C13.571 20.837 15.129 19.28 15.129 17.049V13.234H9.939V16.166H1.402V4.671H9.939V8.044H15.129V3.789C15.129 1.557 13.571 0 11.34 0Z" fill="#17232e"/>
<path transform="matrix(1,0,0,-1,173.5007,17.3455)" d="M0 0C-.363 1.297-.83 2.829-1.09 4.126-1.402 2.829-1.894 1.297-2.309 0L-3.581-3.737H1.116ZM3.841-12.715 2.414-8.044H-5.034L-6.591-12.715H-12.274L-5.346 8.122H3.088L9.523-12.715Z" fill="#17232e"/>
<path transform="matrix(1,0,0,-1,202.5388,30.060702)" d="M0 0V10.665C0 11.729 .052 12.819 .077 13.883L-4.282 0H-9.083L-13.416 13.883C-13.39 12.819-13.338 11.729-13.338 10.665V0H-18.528V20.837H-11.47L-7.863 9.523C-7.552 8.512-7.11 7.136-6.669 5.449-6.228 7.136-5.787 8.512-5.476 9.523L-1.869 20.837H5.19V0Z" fill="#17232e"/>
<path transform="matrix(1,0,0,-1,0,53.7895)" d="M223.818 39.895H215.40999V34.991H223.818ZM215.41 30.32V23.729H210.22V44.566H225.219C227.451 44.566 229.008 43.009 229.008 40.778V34.109C229.008 31.877 227.451 30.32 225.219 30.32Z" fill="#17232e"/>
<path transform="matrix(1,0,0,-1,179.7542,48.3226)" d="M0 0C-1.123 0-1.906 .784-1.906 1.907V8.579C-1.906 9.702-1.123 10.485 0 10.485H5.707C6.829 10.485 7.613 9.702 7.613 8.579V6.659H5.001V8.135H.705V2.35H5.001V4.048H7.613V1.907C7.613 .784 6.829 0 5.707 0Z" fill="#17232e"/>
<path transform="matrix(1,0,0,-1,0,53.7895)" d="M193.958 11.304H191.20299V7.765H193.958ZM190.524 5.467C189.427 5.467 188.644 6.224 188.644 7.321V11.774C188.644 12.871 189.427 13.602 190.524 13.602H194.637C195.734 13.602 196.518 12.871 196.518 11.774V7.321C196.518 6.224 195.734 5.467 194.637 5.467Z" fill="#17232e"/>
<path transform="matrix(1,0,0,-1,0,53.7895)" d="M197.821 7.791H200.432V5.193H197.821Z" fill="#17232e"/>
<path transform="matrix(1,0,0,-1,201.3058,50.1636)" d="M0 0 .522 4.165H3.12L1.958 0Z" fill="#17232e"/>
<path transform="matrix(1,0,0,-1,209.5558,48.3226)" d="M0 0C-1.123 0-1.906 .784-1.906 1.907V10.485H.705V2.35H5.354V0Z" fill="#17232e"/>
<path transform="matrix(1,0,0,-1,217.5841,48.3226)" d="M0 0C-1.096 0-1.88 .731-1.88 1.828V5.837H-3.329V8.135H-1.88V10.485H.679V8.135H2.598V5.837H.679V2.141H2.598V0Z" fill="#17232e"/>
<path transform="matrix(1,0,0,-1,0,53.7895)" d="M226.448 11.304H223.693V7.765H226.448ZM223.014 5.467C221.917 5.467 221.134 6.224 221.134 7.321V11.774C221.134 12.871 221.917 13.602 223.014 13.602H226.448V16.409H229.008V5.467Z" fill="#17232e"/>
<path transform="matrix(1,0,0,-1,63.337,41.119005)" d="M0 0-1.185-3.198H1.185ZM2.086-5.625 1.461-3.945H-1.461L-2.086-5.625H-2.996L-.528 .771H.527L2.995-5.625Z" fill="#17232e"/>
<path transform="matrix(1,0,0,-1,0,53.7895)" d="M67.327 7.727H68.366008V6.696H67.327Z" fill="#17232e"/>
<path transform="matrix(1,0,0,-1,0,53.7895)" d="M69.828 13.442H70.673007V7.0450007H69.828Z" fill="#17232e"/>
<path transform="matrix(1,0,0,-1,89.2071,41.4516)" d="M0 0C0 .219-.138 .357-.357 .357H-3.507V-4.546H-.357C-.138-4.546 0-4.408 0-4.189ZM-4.352-5.293V1.104H-.309C.373 1.104 .844 .633 .844-.049V-4.14C.844-4.822 .373-5.293-.309-5.293Z" fill="#17232e"/>
<path transform="matrix(1,0,0,-1,94.5445,44.869005)" d="M0 0H-2.119C-2.2 0-2.249-.049-2.249-.13V-1.015C-2.249-1.096-2.2-1.145-2.119-1.145H-.13C-.049-1.145 0-1.096 0-1.015ZM-2.33-1.875C-2.768-1.875-3.077-1.567-3.077-1.128V.008C-3.077 .446-2.809 .714-2.371 .714H0V1.526C0 1.607-.049 1.656-.13 1.656H-2.038C-2.119 1.656-2.167 1.607-2.167 1.526V1.063H-2.996V1.64C-2.996 2.078-2.687 2.387-2.249 2.387H.081C.52 2.387 .828 2.078 .828 1.64V-1.128C.828-1.567 .52-1.875 .081-1.875Z" fill="#17232e"/>
<path transform="matrix(1,0,0,-1,98.2652,46.7445)" d="M0 0C-.438 0-.747 .309-.747 .747V3.531H-1.721V4.262H-.747V6.283H.082V4.262H1.234V3.531H.082V.861C.082 .779 .13 .731 .211 .731H1.104V0Z" fill="#17232e"/>
<path transform="matrix(1,0,0,-1,103.6661,44.869005)" d="M0 0H-2.119C-2.2 0-2.249-.049-2.249-.13V-1.015C-2.249-1.096-2.2-1.145-2.119-1.145H-.13C-.049-1.145 0-1.096 0-1.015ZM-2.33-1.875C-2.769-1.875-3.077-1.567-3.077-1.128V.008C-3.077 .446-2.809 .714-2.371 .714H0V1.526C0 1.607-.049 1.656-.13 1.656H-2.038C-2.119 1.656-2.167 1.607-2.167 1.526V1.063H-2.996V1.64C-2.996 2.078-2.687 2.387-2.249 2.387H.081C.52 2.387 .828 2.078 .828 1.64V-1.128C.828-1.567 .52-1.875 .081-1.875Z" fill="#17232e"/>
<path transform="matrix(1,0,0,-1,122.5919,46.7445)" d="M0 0V2.963H-3.183V0H-4.026V6.397H-3.183V3.726H0V6.397H.844V0Z" fill="#17232e"/>
<path transform="matrix(1,0,0,-1,128.0665,43.3432)" d="M0 0C0 .082-.049 .13-.13 .13H-2.159C-2.24 .13-2.289 .082-2.289 0V-1.006H-.13C-.049-1.006 0-.958 0-.876ZM-2.37-3.401C-2.809-3.401-3.117-3.093-3.117-2.654V.114C-3.117 .552-2.809 .861-2.37 .861H.081C.52 .861 .828 .552 .828 .114V-1.015C.828-1.453 .56-1.721 .122-1.721H-2.289V-2.541C-2.289-2.622-2.24-2.67-2.159-2.67H-.211C-.13-2.67-.081-2.622-.081-2.541V-2.07H.747V-2.654C.747-3.093 .438-3.401 0-3.401Z" fill="#17232e"/>
<path transform="matrix(1,0,0,-1,133.3389,44.869005)" d="M0 0H-2.119C-2.2 0-2.249-.049-2.249-.13V-1.015C-2.249-1.096-2.2-1.145-2.119-1.145H-.13C-.049-1.145 0-1.096 0-1.015ZM-2.33-1.875C-2.769-1.875-3.077-1.567-3.077-1.128V.008C-3.077 .446-2.809 .714-2.371 .714H0V1.526C0 1.607-.049 1.656-.13 1.656H-2.038C-2.119 1.656-2.167 1.607-2.167 1.526V1.063H-2.996V1.64C-2.996 2.078-2.687 2.387-2.249 2.387H.081C.52 2.387 .828 2.078 .828 1.64V-1.128C.828-1.567 .52-1.875 .081-1.875Z" fill="#17232e"/>
<path transform="matrix(1,0,0,-1,0,53.7895)" d="M135.648 13.726H136.476V7.0449998H135.648Z" fill="#17232e"/>
<path transform="matrix(1,0,0,-1,139.48,46.7445)" d="M0 0C-.438 0-.747 .309-.747 .747V3.531H-1.721V4.262H-.747V6.283H.082V4.262H1.234V3.531H.082V.861C.082 .779 .13 .731 .211 .731H1.104V0Z" fill="#17232e"/>
<path transform="matrix(1,0,0,-1,145.1651,46.7445)" d="M0 0V3.401C0 3.483-.049 3.531-.13 3.531H-2.33V0H-3.158V6.681H-2.33V4.262H.081C.52 4.262 .828 3.954 .828 3.515V0Z" fill="#17232e"/>
<path transform="matrix(1,0,0,-1,148.188,46.7445)" d="M0 0C-.438 0-.747 .309-.747 .747V3.515C-.747 3.954-.438 4.262 0 4.262H2.411C2.849 4.262 3.158 3.954 3.158 3.515V2.752H2.33V3.401C2.33 3.483 2.281 3.531 2.2 3.531H.211C.13 3.531 .081 3.483 .081 3.401V.861C.081 .779 .13 .731 .211 .731H2.2C2.281 .731 2.33 .779 2.33 .861V1.729H3.158V.747C3.158 .309 2.849 0 2.411 0Z" fill="#17232e"/>
<path transform="matrix(1,0,0,-1,155.8223,44.869005)" d="M0 0H-2.119C-2.2 0-2.249-.049-2.249-.13V-1.015C-2.249-1.096-2.2-1.145-2.119-1.145H-.13C-.049-1.145 0-1.096 0-1.015ZM-2.33-1.875C-2.769-1.875-3.077-1.567-3.077-1.128V.008C-3.077 .446-2.809 .714-2.371 .714H0V1.526C0 1.607-.049 1.656-.13 1.656H-2.038C-2.119 1.656-2.167 1.607-2.167 1.526V1.063H-2.996V1.64C-2.996 2.078-2.687 2.387-2.249 2.387H.081C.52 2.387 .828 2.078 .828 1.64V-1.128C.828-1.567 .52-1.875 .081-1.875Z" fill="#17232e"/>
<path transform="matrix(1,0,0,-1,158.0655,46.7445)" d="M0 0V3.515C0 3.954 .309 4.262 .747 4.262H2.565V3.531H.958C.877 3.531 .828 3.483 .828 3.401V0Z" fill="#17232e"/>
<path transform="matrix(1,0,0,-1,164.9195,43.3432)" d="M0 0C0 .082-.048 .13-.13 .13H-2.159C-2.24 .13-2.289 .082-2.289 0V-1.006H-.13C-.048-1.006 0-.958 0-.876ZM-2.37-3.401C-2.809-3.401-3.117-3.093-3.117-2.654V.114C-3.117 .552-2.809 .861-2.37 .861H.082C.52 .861 .828 .552 .828 .114V-1.015C.828-1.453 .56-1.721 .122-1.721H-2.289V-2.541C-2.289-2.622-2.24-2.67-2.159-2.67H-.211C-.13-2.67-.081-2.622-.081-2.541V-2.07H.747V-2.654C.747-3.093 .438-3.401 0-3.401Z" fill="#17232e"/>
<path transform="matrix(1,0,0,-1,0,53.7895)" d="M78.255 6.207H77.755V14.604H78.255Z" fill="#717071"/>
<path transform="matrix(1,0,0,-1,0,53.7895)" d="M111.572 6.207H111.072V14.604H111.572Z" fill="#717071"/>
</g>
</g>
</svg>
