<svg xmlns="http://www.w3.org/2000/svg" xmlns:xlink="http://www.w3.org/1999/xlink" xmlns:inkscape="http://www.inkscape.org/namespaces/inkscape" version="1.1" width="137.943" height="122.534" viewBox="0 0 137.943 122.534">
<defs>
<linearGradient id="bcGrad" gradientUnits="userSpaceOnUse" x1="34.5416" y1="36.7379" x2="102.8062" y2="36.8831"><stop offset="0" stop-color="#00ffff"/><stop offset="1" stop-color="#0000ff"/></linearGradient>
<clipPath id="clip_1">
<path transform="matrix(1,0,0,-1,0,122.534)" d="M0 122.534H137.943V0H0Z"/>
</clipPath>
<clipPath id="clip_2">
<path transform="matrix(1,0,0,-1,0,122.534)" d="M61.34 115.278C61.34 114.769 61.392 114.273 61.493 113.792 61.844 112.097 61.36 110.475 60.136 109.249L59.887 108.999C58.66 107.773 57.04 107.289 55.342 107.643 54.863 107.743 54.365 107.796 53.858 107.796 49.848 107.796 46.602 104.547 46.602 100.539 46.602 96.531 49.848 93.283 53.858 93.283 57.864 93.283 61.115 96.531 61.115 100.539 61.115 101.047 61.06 101.544 60.961 102.023 60.61 103.721 61.094 105.342 62.319 106.568L62.568 106.817C63.795 108.042 65.415 108.527 67.111 108.173 67.591 108.074 68.086 108.022 68.596 108.022 69.107 108.022 69.602 108.074 70.081 108.173 71.778 108.527 73.399 108.042 74.625 106.817L74.948 106.493C76.176 105.268 76.66 103.646 76.306 101.948 76.207 101.47 76.153 100.972 76.153 100.463 76.153 99.953 76.207 99.457 76.306 98.978 76.66 97.282 76.176 95.66 74.948 94.434L74.699 94.185C73.476 92.959 71.852 92.475 70.155 92.828 69.679 92.927 69.18 92.981 68.67 92.981 64.664 92.981 61.414 89.731 61.414 85.723 61.414 81.717 64.664 78.467 68.67 78.467 69.18 78.467 69.675 78.52 70.155 78.619 71.852 78.971 73.476 78.487 74.699 77.262L75.025 76.937C76.249 75.713 76.734 74.09 76.382 72.394 76.279 71.915 76.229 71.419 76.229 70.91 76.229 70.4 76.279 69.904 76.382 69.424 76.734 67.729 76.249 66.106 75.025 64.88L74.776 64.631C73.549 63.408 71.929 62.923 70.231 63.275 69.753 63.375 69.257 63.427 68.747 63.427 68.236 63.427 67.741 63.375 67.259 63.275 65.565 62.923 63.941 63.408 62.717 64.633L62.394 64.956C61.168 66.182 60.683 67.803 61.037 69.499 61.137 69.98 61.187 70.476 61.187 70.985 61.187 74.993 57.94 78.241 53.932 78.241 49.925 78.241 46.676 74.993 46.676 70.985 46.676 66.977 49.925 63.729 53.932 63.729 54.442 63.729 54.938 63.781 55.417 63.881 57.113 64.233 58.737 63.749 59.961 62.524L60.284 62.199C61.51 60.974 61.995 59.353 61.641 57.656 61.542 57.175 61.491 56.679 61.491 56.17 61.491 52.162 64.737 48.912 68.747 48.912 72.752 48.912 76.002 52.162 76.002 56.17 76.002 56.679 75.949 57.175 75.849 57.655 75.498 59.351 75.983 60.974 77.206 62.199L77.459 62.448C78.683 63.674 80.303 64.158 82.001 63.804 82.48 63.705 82.978 63.652 83.486 63.652 87.494 63.652 90.741 66.902 90.741 70.91 90.741 74.918 87.494 78.166 83.486 78.166 82.978 78.166 82.48 78.114 82.001 78.014 80.303 77.661 78.683 78.146 77.456 79.371L77.133 79.696C75.906 80.921 75.422 82.544 75.776 84.239 75.875 84.72 75.928 85.215 75.928 85.723 75.928 86.232 75.875 86.729 75.776 87.21 75.422 88.906 75.906 90.527 77.133 91.752L77.382 92.002C78.609 93.227 80.23 93.712 81.924 93.359 82.406 93.26 82.902 93.208 83.411 93.208 87.418 93.208 90.668 96.456 90.668 100.463 90.668 104.471 87.418 107.721 83.411 107.721 82.902 107.721 82.406 107.667 81.924 107.568 80.23 107.215 78.607 107.699 77.382 108.923L77.056 109.249C75.833 110.475 75.349 112.097 75.702 113.792 75.802 114.273 75.852 114.769 75.852 115.278 75.852 119.286 72.606 122.534 68.596 122.534 64.588 122.534 61.34 119.286 61.34 115.278M34.546 85.886V85.712C34.593 83.227 36.621 81.229 39.119 81.229 41.64 81.229 43.686 83.274 43.686 85.799 43.686 88.323 41.64 90.369 39.119 90.369 36.621 90.369 34.593 88.37 34.546 85.886M93.654 85.65C93.654 83.125 95.7 81.08 98.223 81.08 100.749 81.08 102.794 83.125 102.794 85.65 102.794 88.175 100.749 90.22 98.223 90.22 95.7 90.22 93.654 88.175 93.654 85.65"/>
</clipPath>
</defs>
<g inkscape:groupmode="layer" inkscape:label="&#xB808;&#xC774;&#xC5B4; 1">
<path transform="matrix(1,0,0,-1,7.1442,115.450099)" d="M0 0-2.416-6.265H-1.526L-.913-4.619H1.949L2.56-6.265H3.451L1.033 0ZM.517-.755 1.678-3.887H-.643Z" fill="#17232e"/>
<path transform="matrix(1,0,0,-1,0,122.534)" d="M12.673 .478H13.691V1.4879999H12.673Z" fill="#17232e"/>
<path transform="matrix(1,0,0,-1,0,122.534)" d="M16.232 .819H17.058V7.0839998H16.232Z" fill="#17232e"/>
<g clip-path="url(#clip_1)">
<path transform="matrix(1,0,0,-1,41.8652,116.5311)" d="M0 0C0 .214-.135 .35-.35 .35H-3.435V-4.452H-.35C-.135-4.452 0-4.317 0-4.102ZM-4.261-5.184V1.081H-.302C.365 1.081 .827 .62 .827-.048V-4.055C.827-4.722 .365-5.184-.302-5.184Z" fill="#17232e"/>
<path transform="matrix(1,0,0,-1,48.1963,119.8782)" d="M0 0H-2.075C-2.154 0-2.202-.047-2.202-.127V-.994C-2.202-1.073-2.154-1.121-2.075-1.121H-.127C-.048-1.121 0-1.073 0-.994ZM-2.281-1.836C-2.711-1.836-3.013-1.534-3.013-1.105V.008C-3.013 .437-2.751 .7-2.321 .7H0V1.495C0 1.574-.048 1.622-.127 1.622H-1.995C-2.075 1.622-2.123 1.574-2.123 1.495V1.042H-2.934V1.606C-2.934 2.035-2.632 2.337-2.202 2.337H.079C.509 2.337 .811 2.035 .811 1.606V-1.105C.811-1.534 .509-1.836 .079-1.836Z" fill="#17232e"/>
<path transform="matrix(1,0,0,-1,52.9463,121.7147)" d="M0 0C-.43 0-.731 .302-.731 .731V3.458H-1.686V4.174H-.731V6.153H.079V4.174H1.208V3.458H.079V.843C.079 .763 .127 .716 .207 .716H1.081V0Z" fill="#17232e"/>
<path transform="matrix(1,0,0,-1,59.3428,119.8782)" d="M0 0H-2.075C-2.154 0-2.202-.047-2.202-.127V-.994C-2.202-1.073-2.154-1.121-2.075-1.121H-.127C-.048-1.121 0-1.073 0-.994ZM-2.281-1.836C-2.711-1.836-3.013-1.534-3.013-1.105V.008C-3.013 .437-2.751 .7-2.321 .7H0V1.495C0 1.574-.048 1.622-.127 1.622H-1.995C-2.075 1.622-2.123 1.574-2.123 1.495V1.042H-2.934V1.606C-2.934 2.035-2.632 2.337-2.202 2.337H.079C.509 2.337 .811 2.035 .811 1.606V-1.105C.811-1.534 .509-1.836 .079-1.836Z" fill="#17232e"/>
<path transform="matrix(1,0,0,-1,84.5283,121.7147)" d="M0 0V2.902H-3.116V0H-3.942V6.265H-3.116V3.649H0V6.265H.827V0Z" fill="#17232e"/>
<path transform="matrix(1,0,0,-1,90.9951,118.3836)" d="M0 0C0 .08-.048 .127-.127 .127H-2.114C-2.194 .127-2.241 .08-2.241 0V-.986H-.127C-.048-.986 0-.938 0-.858ZM-2.321-3.331C-2.751-3.331-3.053-3.029-3.053-2.6V.111C-3.053 .541-2.751 .843-2.321 .843H.08C.509 .843 .812 .541 .812 .111V-.994C.812-1.423 .549-1.685 .119-1.685H-2.241V-2.488C-2.241-2.568-2.194-2.615-2.114-2.615H-.206C-.127-2.615-.079-2.568-.079-2.488V-2.027H.731V-2.6C.731-3.029 .43-3.331 0-3.331Z" fill="#17232e"/>
<path transform="matrix(1,0,0,-1,97.2637,119.8782)" d="M0 0H-2.075C-2.154 0-2.202-.047-2.202-.127V-.994C-2.202-1.073-2.154-1.121-2.075-1.121H-.127C-.048-1.121 0-1.073 0-.994ZM-2.281-1.836C-2.711-1.836-3.013-1.534-3.013-1.105V.008C-3.013 .437-2.751 .7-2.321 .7H0V1.495C0 1.574-.048 1.622-.127 1.622H-1.995C-2.075 1.622-2.123 1.574-2.123 1.495V1.042H-2.934V1.606C-2.934 2.035-2.632 2.337-2.202 2.337H.079C.509 2.337 .811 2.035 .811 1.606V-1.105C.811-1.534 .509-1.836 .079-1.836Z" fill="#17232e"/>
<path transform="matrix(1,0,0,-1,0,122.534)" d="M100.631 7.362H101.44199V.81899979H100.631Z" fill="#17232e"/>
<path transform="matrix(1,0,0,-1,105.4932,121.7147)" d="M0 0C-.43 0-.731 .302-.731 .731V3.458H-1.686V4.174H-.731V6.153H.079V4.174H1.208V3.458H.079V.843C.079 .763 .127 .716 .207 .716H1.081V0Z" fill="#17232e"/>
<path transform="matrix(1,0,0,-1,112.168,121.7147)" d="M0 0V3.331C0 3.411-.048 3.458-.128 3.458H-2.282V0H-3.093V6.543H-2.282V4.174H.079C.509 4.174 .811 3.872 .811 3.442V0Z" fill="#17232e"/>
<path transform="matrix(1,0,0,-1,116.2344,121.7147)" d="M0 0C-.43 0-.731 .302-.731 .731V3.442C-.731 3.872-.43 4.174 0 4.174H2.361C2.79 4.174 3.093 3.872 3.093 3.442V2.695H2.281V3.331C2.281 3.411 2.234 3.458 2.154 3.458H.207C.127 3.458 .08 3.411 .08 3.331V.843C.08 .763 .127 .716 .207 .716H2.154C2.234 .716 2.281 .763 2.281 .843V1.693H3.093V.731C3.093 .302 2.79 0 2.361 0Z" fill="#17232e"/>
<path transform="matrix(1,0,0,-1,124.8154,119.8782)" d="M0 0H-2.075C-2.154 0-2.202-.047-2.202-.127V-.994C-2.202-1.073-2.154-1.121-2.075-1.121H-.127C-.048-1.121 0-1.073 0-.994ZM-2.281-1.836C-2.711-1.836-3.013-1.534-3.013-1.105V.008C-3.013 .437-2.751 .7-2.321 .7H0V1.495C0 1.574-.048 1.622-.127 1.622H-1.995C-2.075 1.622-2.123 1.574-2.123 1.495V1.042H-2.934V1.606C-2.934 2.035-2.632 2.337-2.202 2.337H.079C.509 2.337 .811 2.035 .811 1.606V-1.105C.811-1.534 .509-1.836 .079-1.836Z" fill="#17232e"/>
<path transform="matrix(1,0,0,-1,128.1182,121.7147)" d="M0 0V3.442C0 3.872 .303 4.174 .731 4.174H2.513V3.458H.938C.859 3.458 .812 3.411 .812 3.331V0Z" fill="#17232e"/>
<path transform="matrix(1,0,0,-1,135.9385,118.3836)" d="M0 0C0 .08-.048 .127-.127 .127H-2.114C-2.194 .127-2.241 .08-2.241 0V-.986H-.127C-.048-.986 0-.938 0-.858ZM-2.321-3.331C-2.751-3.331-3.053-3.029-3.053-2.6V.111C-3.053 .541-2.751 .843-2.321 .843H.08C.509 .843 .812 .541 .812 .111V-.994C.812-1.423 .549-1.685 .119-1.685H-2.241V-2.488C-2.241-2.568-2.194-2.615-2.114-2.615H-.206C-.127-2.615-.079-2.568-.079-2.488V-2.027H.731V-2.6C.731-3.029 .43-3.331 0-3.331Z" fill="#17232e"/>
<path transform="matrix(1,0,0,-1,2.9687,107.8978)" d="M0 0C-2.182 3.705-2.969 7.663-2.969 11.368-2.969 15.047-2.182 18.98 0 22.66H3.68C1.497 18.98 .559 14.793 .559 11.368 .559 7.917 1.497 3.705 3.68 0Z" fill="#17232e"/>
<path transform="matrix(1,0,0,-1,26.9766,96.859699)" d="M0 0C-2.767 1.396-5.532 2.766-8.247 4.238-10.988 2.817-13.754 1.446-16.494 0L-18.626 2.36C-16.164 3.654-13.602 4.974-11.165 6.293-10.303 6.775-10.1 7.283-10.049 8.222H-17.357V11.317H.862V8.222H-6.445C-6.42 7.308-6.191 6.775-5.329 6.293-2.943 4.948-.355 3.629 2.131 2.36ZM-6.471-4.136V-10.708H-10.023V-4.136H-19.285V-1.041H2.791V-4.136Z" fill="#17232e"/>
<path transform="matrix(1,0,0,-1,30.8135,107.8978)" d="M0 0C2.182 3.705 3.121 7.917 3.121 11.368 3.121 14.793 2.182 18.98 0 22.66H3.679C5.861 18.98 6.648 15.047 6.648 11.368 6.648 7.663 5.861 3.705 3.679 0Z" fill="#17232e"/>
<path transform="matrix(1,0,0,-1,0,122.534)" d="M59.465 31.028H49.366V29.379H59.465ZM44.393 25.116V37.119H49.366V35.292H59.465V37.119H64.438V25.116ZM57.156 19.331V14.813H51.675V19.331H43.225V23.594H65.606V19.331Z" fill="#17232e"/>
<path transform="matrix(1,0,0,-1,68.7588,100.5643)" d="M0 0V15.022H19.539V11.013H4.974V9.541H19.285V5.659H4.974V4.136H19.792V0ZM-1.422-1.929H20.96V-6.192H-1.422Z" fill="#17232e"/>
<path transform="matrix(1,0,0,-1,108.8574,97.367)" d="M0 0V4.212H-1.345V.051H-5.964V12.129H-1.345V8.475H0V12.206H4.669V0ZM-.305-4.872H-10.024V-6.09H-.305ZM-.305-10.201V-8.399L-1.979-10.201H-14.997V-.736H4.669V-10.201ZM-18.042 2.563C-16.596 3.197-15.175 3.781-13.906 4.44H-17.408V7.485H-11.647V8.45H-17.129V11.85H-7.156V6.42C-7.156 4.974-7.715 3.857-8.806 3.121-11.063 1.599-13.982 .431-16.545-.609Z" fill="#17232e"/>
<path transform="matrix(1,0,0,-1,0,122.534)" d="M128.985 32.602H124.519V27.223002H128.985ZM116.679 22.959V27.222H119.546V32.602H116.806V36.865H136.699V32.602H133.959V27.222H136.826V22.959ZM115.562 20.041H137.944V15.778H115.562Z" fill="#17232e"/>
<path transform="matrix(1,0,0,-1,0,122.534)" d="M27.861 0H27.361V8.213H27.861Z" fill="#717071"/>
<path transform="matrix(1,0,0,-1,0,122.534)" d="M70.068 0H69.568V8.213H70.068Z" fill="#717071"/>
</g>
<g clip-path="url(#clip_2)">
<rect x="0" y="0" width="137.9430" height="122.5340" fill="url(#bcGrad)"/>
</g>
</g>
</svg>
